<svg xmlns="http://www.w3.org/2000/svg" viewBox="0 0 85 85"><defs><style>.cls-1{fill:none;}</style></defs><title>ico_membership</title><g id="Layer_2" data-name="Layer 2"><g id="Layer_1-2" data-name="Layer 1"><path d="M63.75,37.25V50.78a6.45,6.45,0,0,0-3.5-1H43.91a1.54,1.54,0,0,0,.09-.5v-5.5h8.65A6.85,6.85,0,0,0,59.5,36.9V23A15.24,15.24,0,0,0,44.28,7.75H40.72A15.24,15.24,0,0,0,25.5,23V36.9a6.85,6.85,0,0,0,6.85,6.85H41v5.5a1.54,1.54,0,0,0,.09.5H24.75a6.45,6.45,0,0,0-3.5,1v-14a1.5,1.5,0,0,0-3,0v20a1.54,1.54,0,0,0,.08.5,6.5,6.5,0,0,0,6.42,5.5H41v11.5H36a1.5,1.5,0,0,0,0,3H49a1.5,1.5,0,0,0,0-3H44V62.75H60.25a6.51,6.51,0,0,0,6.22-4.61,1.43,1.43,0,0,0,.28-.89v-20A1.5,1.5,0,0,0,63.75,37.25ZM28.5,36.9V23A12.23,12.23,0,0,1,40.72,10.75h3.56A12.23,12.23,0,0,1,56.5,23V36.9a3.85,3.85,0,0,1-3.85,3.85H32.35A3.85,3.85,0,0,1,28.5,36.9ZM60.25,59.75H24.75a3.5,3.5,0,0,1,0-7h35.5a3.5,3.5,0,0,1,0,7Z"/><rect class="cls-1" width="85" height="85"/></g></g></svg>