<svg xmlns="http://www.w3.org/2000/svg" viewBox="0 0 85 85"><defs><style>.cls-1{fill:none;}</style></defs><title>ico_counts</title><g id="Layer_2" data-name="Layer 2"><g id="Layer_1-2" data-name="Layer 1"><path d="M74.32,24.81a16.28,16.28,0,0,0-5.52-5.56,1.53,1.53,0,0,0-1.82.23L65.43,21c-2.69-.11-6.17-.79-8.13,1.09-2.83,2.72-5.58,5.54-8.36,8.3a1.5,1.5,0,0,0,2.12,2.12l7.79-7.73c.18-.18.58-.46.87-.74.29,0,.65,0,.78,0h1.91L48.14,38.19c-3.12,3.1-6.3,6.15-9.36,9.3-2.74,2.81-4.28,6.4-5.63,10a1.2,1.2,0,0,0-.26.77,1.28,1.28,0,0,0,1,1.48,1.47,1.47,0,0,0,1.24-.06C38.84,57.88,43,56.3,46,53.51c3.27-3,6.4-6.14,9.6-9.2L74.09,26.63A1.52,1.52,0,0,0,74.32,24.81ZM37.42,55.3a32.11,32.11,0,0,1,2.34-3.79,17.51,17.51,0,0,1,1.68,1.62A44,44,0,0,1,37.42,55.3ZM54.22,41.52l-9.64,9.24c-.23.22-.47.41-.71.62a17,17,0,0,0-2.27-2.24c3-3.58,6.54-6.71,10.08-10.23L68.22,22.49a12.71,12.71,0,0,1,2.85,2.88Z"/><path d="M61,71.62A2.38,2.38,0,0,1,58.59,74H19.36A2.38,2.38,0,0,1,17,71.62V69h2a1.5,1.5,0,0,0,0-3H17V62h2a1.5,1.5,0,0,0,0-3H17V55h2a1.5,1.5,0,0,0,0-3H17V48h2a1.5,1.5,0,0,0,0-3H17V41h2a1.5,1.5,0,0,0,0-3H17V34h2a1.5,1.5,0,0,0,0-3H17V27h2a1.5,1.5,0,0,0,0-3H17V20h2a1.5,1.5,0,0,0,0-3H17V13.38A2.38,2.38,0,0,1,19.36,11H58.59A2.38,2.38,0,0,1,61,13.38V17h3V13.38A5.39,5.39,0,0,0,58.59,8H19.36A5.39,5.39,0,0,0,14,13.38V17H12a1.5,1.5,0,0,0,0,3h2v4H12a1.5,1.5,0,0,0,0,3h2v4H12a1.5,1.5,0,0,0,0,3h2v4H12a1.5,1.5,0,0,0,0,3h2v4H12a1.5,1.5,0,0,0,0,3h2v4H12a1.5,1.5,0,0,0,0,3h2v4H12a1.5,1.5,0,0,0,0,3h2v4H12a1.5,1.5,0,0,0,0,3h2v2.62A5.39,5.39,0,0,0,19.36,77H58.59A5.39,5.39,0,0,0,64,71.62V42.93L61,46Z"/><rect class="cls-1" width="85" height="85"/></g></g></svg>