<svg xmlns="http://www.w3.org/2000/svg" viewBox="0 0 85 85"><defs><style>.cls-1{fill:none;}</style></defs><title>ico_board</title><g id="Layer_2" data-name="Layer 2"><g id="Layer_1-2" data-name="Layer 1"><path d="M79.56,23.44l-10-10a1.6,1.6,0,0,0-.31-.24,1.26,1.26,0,0,0-1.51,0l-9,6a1.52,1.52,0,0,0-.3,2.36l1.15,1.25L43.15,31.46,41.8,28.74A1.26,1.26,0,0,0,40.39,28a1.53,1.53,0,0,0-.64.2l-34,19A1.33,1.33,0,0,0,5,48.66,1.66,1.66,0,0,0,5,49V70.5a1.43,1.43,0,0,0,1.59,1.44A1.58,1.58,0,0,0,7,72H23.5a1.36,1.36,0,0,0,1.21-.64l.09-.1L39.88,50l10.88,2.85a1.26,1.26,0,0,0,.84.14h.17a1.21,1.21,0,0,0,.79-.42L68.64,32.69l.8.87a1.52,1.52,0,0,0,2.12,0l8-8A1.52,1.52,0,0,0,79.56,23.44ZM22.73,69H8V49.38L39.86,31.57l1.34,2.68,2.56,5.11ZM45.3,42.46l3.38,6.75-6.75-1.77Zm6.5,6.3L47,39.22a1.28,1.28,0,0,0-.27-.55L44.5,34.14l16.72-8.8,5.27,5.27Zm10-28,6.52-4.35,8.07,8.07-5.83,5.83Z"/><rect class="cls-1" width="85" height="85"/></g></g></svg>